<?xml version="1.0" encoding="utf-8"?>
<!-- Generator: Adobe Illustrator 22.1.0, SVG Export Plug-In . SVG Version: 6.00 Build 0)  -->
<svg version="1.1" id="Layer_1" xmlns="http://www.w3.org/2000/svg" xmlns:xlink="http://www.w3.org/1999/xlink" x="0px" y="0px"
	 viewBox="0 0 400 400" enable-background="new 0 0 400 400" xml:space="preserve">
<g>
	<g>
		<g>
			<path fill="#394EFF" d="M76.9,301.1l-9.1-27.2c0-0.1,0-0.2,0-0.4c0-0.3,0.1-0.5,0.3-0.6c0.2-0.2,0.4-0.3,0.6-0.3h3.8
				c0.4,0,0.7,0.1,0.9,0.3c0.2,0.2,0.4,0.4,0.5,0.6l7.1,21.7l7.1-21.7c0.1-0.2,0.2-0.4,0.4-0.6s0.5-0.3,0.9-0.3h3.8
				c0.2,0,0.4,0.1,0.6,0.3c0.2,0.2,0.3,0.4,0.3,0.6l-0.1,0.4l-9,27.2c-0.3,0.8-0.8,1.2-1.7,1.2h-4.7
				C77.7,302.2,77.1,301.8,76.9,301.1z"/>
			<path fill="#394EFF" d="M105.2,301.9c-0.2-0.2-0.3-0.4-0.3-0.7v-23.3h-7.8c-0.3,0-0.5-0.1-0.7-0.3c-0.2-0.2-0.3-0.5-0.3-0.8v-3.2
				c0-0.3,0.1-0.6,0.3-0.8c0.2-0.2,0.4-0.3,0.7-0.3h21.6c0.3,0,0.6,0.1,0.8,0.3c0.2,0.2,0.3,0.5,0.3,0.8v3.2c0,0.3-0.1,0.6-0.3,0.8
				c-0.2,0.2-0.5,0.3-0.8,0.3H111v23.3c0,0.3-0.1,0.5-0.3,0.7c-0.2,0.2-0.4,0.3-0.7,0.3h-4C105.7,302.2,105.4,302.1,105.2,301.9z"/>
			<path fill="#0A193C" d="M129.2,302c-0.2-0.2-0.3-0.4-0.3-0.6l0.1-0.4l10.2-27.3c0.3-0.7,0.8-1.1,1.5-1.1h4.7
				c0.7,0,1.2,0.4,1.5,1.1L157,301l0.1,0.4c0,0.3-0.1,0.5-0.3,0.6c-0.2,0.2-0.4,0.3-0.6,0.3h-3.8c-0.6,0-1-0.3-1.2-0.8l-1.9-5.1
				h-12.5l-1.9,5.1c-0.2,0.5-0.6,0.8-1.2,0.8h-3.8C129.5,302.2,129.3,302.2,129.2,302z M138.2,291.4h9.6l-4.8-13L138.2,291.4z"/>
			<path fill="#0A193C" d="M163.3,299.7c-2.1-1.9-3.2-4.9-3.2-8.8v-17.2c0-0.3,0.1-0.6,0.3-0.8c0.2-0.2,0.4-0.3,0.7-0.3h3.9
				c0.3,0,0.6,0.1,0.8,0.3c0.2,0.2,0.3,0.5,0.3,0.8v17.2c0,2.2,0.5,3.9,1.6,5c1.1,1.1,2.6,1.7,4.5,1.7c1.9,0,3.4-0.6,4.5-1.7
				c1.1-1.1,1.6-2.8,1.6-5v-17.2c0-0.3,0.1-0.6,0.3-0.8s0.5-0.3,0.8-0.3h3.9c0.3,0,0.6,0.1,0.7,0.3c0.2,0.2,0.3,0.5,0.3,0.8v17.2
				c0,4-1.1,6.9-3.2,8.8c-2.1,1.9-5.1,2.9-8.9,2.9C168.4,302.7,165.4,301.7,163.3,299.7z"/>
			<path fill="#0A193C" d="M193,299.7c-2.2-2-3.3-4.8-3.4-8.4c0-0.8,0-2.1,0-3.9c0-1.8,0-3.1,0-3.9c0.1-3.5,1.3-6.2,3.5-8.2
				c2.2-2,5.2-3,9.1-3c2.6,0,4.8,0.4,6.7,1.3c1.9,0.9,3.3,2,4.3,3.3c1,1.3,1.5,2.6,1.5,3.9c0,0.3-0.1,0.5-0.3,0.6
				c-0.2,0.2-0.4,0.3-0.7,0.3h-4.4c-0.3,0-0.5-0.1-0.6-0.2c-0.1-0.1-0.3-0.3-0.4-0.5c-0.4-1-1.1-1.9-2.1-2.7c-1-0.7-2.3-1.1-4-1.1
				c-2,0-3.5,0.5-4.6,1.6c-1.1,1.1-1.7,2.7-1.8,4.9c0,0.8,0,2.1,0,3.7c0,1.6,0,2.9,0,3.7c0.1,2.3,0.6,4,1.8,5.1
				c1.1,1.1,2.7,1.6,4.7,1.6c2,0,3.6-0.5,4.8-1.6c1.2-1.1,1.8-2.7,1.8-4.8V290h-5.2c-0.3,0-0.5-0.1-0.7-0.3
				c-0.2-0.2-0.3-0.4-0.3-0.7v-2.3c0-0.3,0.1-0.5,0.3-0.7c0.2-0.2,0.4-0.3,0.7-0.3h10.2c0.3,0,0.6,0.1,0.8,0.3
				c0.2,0.2,0.3,0.4,0.3,0.7v4.5c0,2.3-0.5,4.4-1.6,6.1c-1,1.7-2.5,3.1-4.4,4c-1.9,0.9-4.2,1.4-6.7,1.4
				C198.2,302.7,195.2,301.7,193,299.7z"/>
			<path fill="#0A193C" d="M220.5,301.9c-0.2-0.2-0.3-0.4-0.3-0.7v-27.6c0-0.3,0.1-0.6,0.3-0.8c0.2-0.2,0.4-0.3,0.7-0.3h3.4
				c0.5,0,1,0.3,1.3,0.8l8.2,15.2l8.2-15.2c0.3-0.5,0.7-0.8,1.3-0.8h3.4c0.3,0,0.6,0.1,0.8,0.3s0.3,0.5,0.3,0.8v27.6
				c0,0.3-0.1,0.6-0.3,0.7c-0.2,0.2-0.5,0.3-0.8,0.3h-3.6c-0.3,0-0.5-0.1-0.7-0.3s-0.3-0.4-0.3-0.7V283l-5.9,11.2
				c-0.3,0.6-0.8,0.9-1.4,0.9h-1.8c-0.6,0-1.1-0.3-1.4-0.9l-5.9-11.2v18.2c0,0.3-0.1,0.5-0.3,0.7c-0.2,0.2-0.4,0.3-0.7,0.3h-3.6
				C221,302.2,220.7,302.1,220.5,301.9z"/>
			<path fill="#0A193C" d="M254.9,301.9c-0.2-0.2-0.3-0.4-0.3-0.7v-27.6c0-0.3,0.1-0.6,0.3-0.8c0.2-0.2,0.4-0.3,0.7-0.3h18.7
				c0.3,0,0.6,0.1,0.8,0.3s0.3,0.5,0.3,0.8v2.8c0,0.3-0.1,0.6-0.3,0.7c-0.2,0.2-0.5,0.3-0.8,0.3h-13.9v7.4h12.9
				c0.3,0,0.6,0.1,0.8,0.3s0.3,0.5,0.3,0.8v2.7c0,0.3-0.1,0.6-0.3,0.7s-0.5,0.3-0.8,0.3h-12.9v7.7h14.2c0.3,0,0.6,0.1,0.8,0.3
				c0.2,0.2,0.3,0.4,0.3,0.7v2.9c0,0.3-0.1,0.6-0.3,0.7c-0.2,0.2-0.5,0.3-0.8,0.3h-19C255.3,302.2,255.1,302.1,254.9,301.9z"/>
			<path fill="#0A193C" d="M281.3,301.9c-0.2-0.2-0.3-0.4-0.3-0.7v-27.6c0-0.3,0.1-0.6,0.3-0.8c0.2-0.2,0.4-0.3,0.7-0.3h3.3
				c0.5,0,0.9,0.2,1.2,0.7l12.1,18.8v-18.5c0-0.3,0.1-0.6,0.3-0.8s0.4-0.3,0.7-0.3h3.6c0.3,0,0.6,0.1,0.8,0.3s0.3,0.5,0.3,0.8v27.5
				c0,0.3-0.1,0.6-0.3,0.8s-0.4,0.3-0.7,0.3H300c-0.6,0-1-0.2-1.3-0.7l-12.1-18.4v18.1c0,0.3-0.1,0.5-0.3,0.7
				c-0.2,0.2-0.4,0.3-0.7,0.3H282C281.7,302.2,281.5,302.1,281.3,301.9z"/>
			<path fill="#0A193C" d="M317.7,301.9c-0.2-0.2-0.3-0.4-0.3-0.7v-23.3h-7.8c-0.3,0-0.5-0.1-0.7-0.3c-0.2-0.2-0.3-0.5-0.3-0.8v-3.2
				c0-0.3,0.1-0.6,0.3-0.8c0.2-0.2,0.4-0.3,0.7-0.3h21.6c0.3,0,0.6,0.1,0.8,0.3c0.2,0.2,0.3,0.5,0.3,0.8v3.2c0,0.3-0.1,0.6-0.3,0.8
				c-0.2,0.2-0.5,0.3-0.8,0.3h-7.8v23.3c0,0.3-0.1,0.5-0.3,0.7c-0.2,0.2-0.4,0.3-0.7,0.3h-4C318.1,302.2,317.9,302.1,317.7,301.9z"
				/>
		</g>
	</g>
	<g>
		<path fill="#0A193C" d="M203,108.6c-2.1,0-3.8-1.7-3.8-3.8v-3.7c0-2.1,1.7-3.8,3.8-3.8s3.8,1.7,3.8,3.8v3.7
			C206.8,106.9,205.1,108.6,203,108.6z"/>
		<path fill="#0A193C" d="M157.2,117.3c-1.4,0-2.8-0.8-3.4-2.2l-1.5-3.3c-0.9-1.9,0-4.2,1.9-5c1.9-0.9,4.2,0,5,1.9l1.5,3.3
			c0.9,1.9,0,4.2-1.9,5C158.2,117.2,157.7,117.3,157.2,117.3z"/>
		<path fill="#0A193C" d="M123.9,142.3c-1,0-2-0.4-2.8-1.2l-2.5-2.7c-1.4-1.5-1.3-3.9,0.2-5.4c1.5-1.4,3.9-1.3,5.4,0.2l2.5,2.7
			c1.4,1.5,1.3,3.9-0.2,5.4C125.8,141.9,124.9,142.3,123.9,142.3z"/>
		<path fill="#0A193C" d="M101.1,182.4c-0.1,0-0.1,0-0.2,0l-3.7-0.2c-2.1-0.1-3.7-1.9-3.6-4c0.1-2.1,1.8-3.7,4-3.6l3.7,0.2
			c2.1,0.1,3.7,1.9,3.6,4C104.8,180.9,103.1,182.4,101.1,182.4z"/>
		<path fill="#0A193C" d="M301.4,182.4c-0.1,0-0.1,0-0.2,0l-3.7-0.2c-2.1-0.1-3.7-1.9-3.6-4c0.1-2.1,1.8-3.7,4-3.6l3.7,0.2
			c2.1,0.1,3.7,1.9,3.6,4C305,180.9,303.4,182.4,301.4,182.4z"/>
		<path fill="#0A193C" d="M248.1,117.3c-0.5,0-1.1-0.1-1.6-0.3c-1.9-0.9-2.7-3.1-1.9-5l1.5-3.3c0.9-1.9,3.1-2.7,5-1.9
			c1.9,0.9,2.7,3.1,1.9,5l-1.5,3.3C250.9,116.5,249.5,117.3,248.1,117.3z"/>
		<path fill="#0A193C" d="M281.3,142.3c-0.9,0-1.8-0.3-2.6-1c-1.5-1.4-1.6-3.8-0.2-5.4l2.5-2.7c1.4-1.5,3.8-1.6,5.4-0.2
			c1.5,1.4,1.6,3.8,0.2,5.4l-2.5,2.7C283.4,141.9,282.4,142.3,281.3,142.3z"/>
	</g>
	<g>
		<path fill="#0A193C" d="M190.1,193.6c-1,0-2-0.4-2.8-1.2l-12.6-13.8c-1.4-1.5-1.3-3.9,0.2-5.4l13.8-12.6c1.5-1.4,3.9-1.3,5.4,0.2
			c1.4,1.5,1.3,3.9-0.2,5.4l-11,10l10,11c1.4,1.5,1.3,3.9-0.2,5.4C191.9,193.3,191,193.6,190.1,193.6z"/>
		<path fill="#0A193C" d="M207.6,193.6c-1,0-2-0.4-2.8-1.2c-1.4-1.5-1.3-3.9,0.2-5.4l11-10l-10-11c-1.4-1.5-1.3-3.9,0.2-5.4
			c1.5-1.4,3.9-1.3,5.4,0.2l12.6,13.8c1.4,1.5,1.3,3.9-0.2,5.4l-13.8,12.6C209.4,193.3,208.5,193.6,207.6,193.6z"/>
	</g>
	<path fill="#394EFF" d="M199.4,229.6c-42.4,0-75.3-44.3-76.7-46.1c-2.1-2.9-2.1-6.8,0-9.7c1.4-1.9,34.3-46.1,76.7-46.1
		s75.3,44.3,76.7,46.1c2.1,2.9,2.1,6.8,0,9.7C274.7,185.3,241.8,229.6,199.4,229.6z M139.9,178.6c9.1,10.5,32.8,34.6,59.5,34.6
		c26.8,0,50.4-24,59.5-34.6c-9.1-10.5-32.8-34.6-59.5-34.6C172.6,144,149,168,139.9,178.6z"/>
</g>
</svg>
